<svg width="180" height="17" viewBox="0 0 180 17" fill="none" xmlns="http://www.w3.org/2000/svg">
<path d="M4.08983 0V16.9212H0V0H4.08983Z" fill="#109EF4"/>
<path d="M21.0585 0V16.9212H17.5883L10.8546 7.15514H10.7472V16.9212H6.65733V0H10.1771L16.8365 9.74949H16.9769V0H21.0585Z" fill="#109EF4"/>
<path d="M23.0766 3.32144V0H37.3786V3.32144H32.2477V16.9212H28.2157V3.32144H23.0766Z" fill="#109EF4"/>
<path d="M39.376 16.9212V0H51.1745V3.32144H43.4658V6.79159H50.5714V10.1213H43.4658V13.5997H51.1745V16.9212H39.376Z" fill="#109EF4"/>
<path d="M57.8752 0L60.9653 5.3457H61.0975L64.2206 0H68.798L63.6919 8.46058L68.9632 16.9212H64.2702L61.0975 11.5176H60.9653L57.7926 16.9212H53.1327L58.3792 8.46058L53.2649 0H57.8752Z" fill="#109EF4"/>
<path d="M77.8761 6.90727V10.0139H70.0435V6.90727H77.8761Z" fill="#109EF4"/>
<path d="M80.7287 0H85.7935L90.0899 10.4766H90.2881L94.5845 0H99.6493V16.9212H95.6669V6.5272H95.5264L91.4614 16.8137H88.9166L84.8516 6.46937H84.7111V16.9212H80.7287V0Z" fill="#109EF4"/>
<path d="M105.86 16.9212H101.465L107.174 0H112.619L118.328 16.9212H113.933L109.959 4.26334H109.826L105.86 16.9212ZM105.274 10.2618H114.462V13.3684H105.274V10.2618Z" fill="#109EF4"/>
<path d="M120.15 16.9212V0H127.14C128.407 0 129.5 0.22859 130.42 0.685769C131.345 1.13744 132.059 1.78741 132.56 2.63567C133.061 3.47842 133.312 4.47816 133.312 5.63488C133.312 6.80812 133.056 7.8051 132.544 8.62582C132.031 9.44103 131.304 10.0635 130.362 10.4931C129.42 10.9172 128.305 11.1293 127.016 11.1293H122.596V7.907H126.256C126.873 7.907 127.388 7.82713 127.801 7.6674C128.22 7.50215 128.536 7.25428 128.751 6.92379C128.966 6.58779 129.073 6.15815 129.073 5.63488C129.073 5.1116 128.966 4.67921 128.751 4.3377C128.536 3.99068 128.22 3.7318 127.801 3.56104C127.382 3.38478 126.867 3.29665 126.256 3.29665H124.24V16.9212H120.15ZM129.677 9.18766L133.89 16.9212H129.429L125.297 9.18766H129.677Z" fill="#109EF4"/>
<path d="M135.555 16.9212V0H139.645V7.15514H139.868L145.462 0H150.279L144.28 7.55173L150.386 16.9212H145.495L141.281 10.27L139.645 12.3356V16.9212H135.555Z" fill="#109EF4"/>
<path d="M151.892 16.9212V0H163.69V3.32144H155.982V6.79159H163.087V10.1213H155.982V13.5997H163.69V16.9212H151.892Z" fill="#109EF4"/>
<path d="M165.698 3.32144V0H180V3.32144H174.869V16.9212H170.837V3.32144H165.698Z" fill="#109EF4"/>
</svg>
